ply
format ascii 1.0
element vertex 867
property float x
property float y
property float z
end_header
0.007222 -0.007622 0.75 
0.014386 -0.015502 0.75 
0.021182 -0.023208 0.75 
0.027805 -0.030866 0.75 
0.034324 -0.038515 0.75 
0.041759 -0.047354 0.75 
0.048519 -0.055486 0.75 
0.05581 -0.064347 0.75 
0.063719 -0.074059 0.75 
0.070407 -0.082347 0.75 
0.077342 -0.091014 0.75 
0.084133 -0.099604 0.75 
0.090501 -0.107763 0.75 
0.097865 -0.117332 0.75 
0.105157 -0.126957 0.75 
0.111352 -0.135248 0.75 
0.117857 -0.144057 0.75 
0.124666 -0.153386 0.75 
0.131773 -0.16324 0.75 
0.139175 -0.173622 0.75 
0.146866 -0.184534 0.75 
0.152831 -0.193084 0.75 
0.158932 -0.201905 0.75 
0.165166 -0.210998 0.75 
0.171616 -0.220489 0.75 
0.178026 -0.230006 0.75 
0.184397 -0.23955 0.75 
0.190728 -0.24912 0.75 
0.196773 -0.25834 0.75 
0.202582 -0.267356 0.75 
0.20809 -0.276207 0.75 
0.213306 -0.284885 0.75 
0.219758 -0.296055 0.75 
0.225704 -0.306822 0.75 
0.23117 -0.317167 0.75 
0.236181 -0.327071 0.75 
0.24076 -0.33652 0.75 
0.245892 -0.347616 0.75 
0.250448 -0.357984 0.75 
0.254468 -0.367602 0.75 
0.258613 -0.37806 0.75 
0.262623 -0.388812 0.75 
0.266179 -0.399009 0.75 
0.269361 -0.408779 0.75 
0.272661 -0.419377 0.75 
0.276006 -0.43051 0.75 
0.279241 -0.441598 0.75 
0.282135 -0.451769 0.75 
0.285211 -0.462824 0.75 
0.2885 -0.47491 0.75 
0.291244 -0.4852 0.75 
0.294093 -0.496083 0.75 
0.297044 -0.50756 0.75 
0.30009 -0.519632 0.75 
0.303228 -0.532299 0.75 
0.305624 -0.542136 0.75 
0.308092 -0.552419 0.75 
0.310607 -0.562999 0.75 
0.313191 -0.573871 0.75 
0.315846 -0.585035 0.75 
0.318605 -0.596637 0.75 
0.321434 -0.60853 0.75 
0.324333 -0.620715 0.75 
0.327302 -0.633191 0.75 
0.330375 -0.646106 0.75 
0.33338 -0.658728 0.75 
0.336351 -0.671204 0.75 
0.339322 -0.68368 0.75 
0.342189 -0.695718 0.75 
0.344988 -0.707465 0.75 
0.347717 -0.718919 0.75 
0.350377 -0.730081 0.75 
0.353037 -0.741244 0.75 
0.355629 -0.752114 0.75 
0.358151 -0.762693 0.75 
0.360604 -0.772979 0.75 
0.363057 -0.783266 0.75 
0.365441 -0.79326 0.75 
0.36779 -0.803109 0.75 
0.370139 -0.812958 0.75 
0.372593 -0.823244 0.75 
0.375116 -0.833822 0.75 
0.377709 -0.844693 0.75 
0.380372 -0.855854 0.75 
0.383139 -0.867454 0.75 
0.385975 -0.879345 0.75 
0.388882 -0.891528 0.75 
0.391857 -0.904003 0.75 
0.394833 -0.916478 0.75 
0.397739 -0.928661 0.75 
0.400576 -0.940553 0.75 
0.403343 -0.952152 0.75 
0.40611 -0.963751 0.75 
0.408807 -0.975059 0.75 
0.411435 -0.986075 0.75 
0.413993 -0.996799 0.75 
0.416551 -1.00752 0.75 
0.41904 -1.01796 0.75 
0.421458 -1.0281 0.75 
0.423808 -1.03795 0.75 
0.426157 -1.04779 0.75 
0.429154 -1.0605 0.75 
0.431933 -1.07263 0.75 
0.434503 -1.0842 0.75 
0.436873 -1.0952 0.75 
0.439051 -1.10562 0.75 
0.441046 -1.11547 0.75 
0.443303 -1.12703 0.75 
0.445613 -1.13934 0.75 
0.447509 -1.14982 0.75 
0.449448 -1.1609 0.75 
0.451426 -1.17258 0.75 
0.453436 -1.18487 0.75 
0.455472 -1.19776 0.75 
0.457004 -1.20777 0.75 
0.458561 -1.21823 0.75 
0.460119 -1.22899 0.75 
0.461653 -1.23991 0.75 
0.463143 -1.25083 0.75 
0.464525 -1.26132 0.75 
0.465819 -1.27151 0.75 
0.467409 -1.28461 0.75 
0.468848 -1.29713 0.75 
0.470145 -1.30906 0.75 
0.471308 -1.3204 0.75 
0.472344 -1.33115 0.75 
0.473263 -1.34131 0.75 
0.474259 -1.35319 0.75 
0.475101 -1.36418 0.75 
0.475917 -1.37601 0.75 
0.476564 -1.38664 0.75 
0.477165 -1.3981 0.75 
0.477666 -1.40934 0.75 
0.478065 -1.41975 0.75 
0.478433 -1.43107 0.75 
0.478721 -1.44209 0.75 
0.478907 -1.45222 0.75 
0.47902 -1.46264 0.75 
0.479061 -1.47397 0.75 
0.47902 -1.48619 0.75 
0.478919 -1.49669 0.75 
0.478753 -1.50779 0.75 
0.478517 -1.51949 0.75 
0.478203 -1.53178 0.75 
0.477806 -1.54468 0.75 
0.477448 -1.5548 0.75 
0.477038 -1.56521 0.75 
0.476575 -1.57593 0.75 
0.476056 -1.58694 0.75 
0.47547 -1.5984 0.75 
0.47484 -1.61016 0.75 
0.474195 -1.62222 0.75 
0.473536 -1.63457 0.75 
0.472856 -1.64738 0.75 
0.472162 -1.66049 0.75 
0.471462 -1.67374 0.75 
0.470765 -1.687 0.75 
0.470069 -1.70026 0.75 
0.469391 -1.71321 0.75 
0.468731 -1.72587 0.75 
0.468088 -1.73823 0.75 
0.46747 -1.75014 0.75 
0.466853 -1.76205 0.75 
0.466246 -1.77381 0.75 
0.465656 -1.78527 0.75 
0.465091 -1.79628 0.75 
0.464526 -1.80729 0.75 
0.463971 -1.81815 0.75 
0.463432 -1.82871 0.75 
0.462917 -1.83882 0.75 
0.462356 -1.85186 0.75 
0.46208 -1.86431 0.75 
0.462065 -1.87616 0.75 
0.462275 -1.8874 0.75 
0.462674 -1.89805 0.75 
0.463226 -1.90808 0.75 
0.46409 -1.91982 0.75 
0.465077 -1.9305 0.75 
0.466367 -1.94213 0.75 
0.467695 -1.9524 0.75 
0.46921 -1.96271 0.75 
0.470937 -1.97314 0.75 
0.472913 -1.98345 0.75 
0.476396 -1.99293 0.75 
0.480547 -2.00266 0.75 
0.484684 -2.01231 0.75 
0.489091 -2.02258 0.75 
0.493406 -2.03264 0.75 
0.497446 -2.04209 0.75 
0.501826 -2.05237 0.75 
0.506349 -2.06308 0.75 
0.510562 -2.07327 0.75 
0.514414 -2.08279 0.75 
0.518527 -2.09318 0.75 
0.522891 -2.10444 0.75 
0.52657 -2.11411 0.75 
0.530407 -2.12437 0.75 
0.534395 -2.13521 0.75 
0.538529 -2.14664 0.75 
0.542804 -2.15865 0.75 
0.547213 -2.17125 0.75 
0.550611 -2.1811 0.75 
0.554067 -2.19126 0.75 
0.557579 -2.20171 0.75 
0.561191 -2.2126 0.75 
0.56476 -2.22351 0.75 
0.568285 -2.23443 0.75 
0.571766 -2.24536 0.75 
0.575067 -2.25588 0.75 
0.578281 -2.26611 0.75 
0.581492 -2.27603 0.75 
0.584692 -2.28563 0.75 
0.588888 -2.29783 0.75 
0.593014 -2.30942 0.75 
0.597052 -2.3204 0.75 
0.600986 -2.33078 0.75 
0.604804 -2.34056 0.75 
0.609366 -2.3519 0.75 
0.613709 -2.36236 0.75 
0.617808 -2.37195 0.75 
0.622346 -2.38224 0.75 
0.627104 -2.39268 0.75 
0.631775 -2.40259 0.75 
0.636572 -2.41251 0.75 
0.64111 -2.42207 0.75 
0.645623 -2.43171 0.75 
0.650591 -2.44247 0.75 
0.655174 -2.4525 0.75 
0.660095 -2.46336 0.75 
0.664281 -2.47266 0.75 
0.668692 -2.48252 0.75 
0.67333 -2.49293 0.75 
0.678194 -2.5039 0.75 
0.683287 -2.51543 0.75 
0.688609 -2.52751 0.75 
0.692744 -2.53692 0.75 
0.696996 -2.5466 0.75 
0.701425 -2.55669 0.75 
0.705973 -2.56707 0.75 
0.710583 -2.57757 0.75 
0.71521 -2.58807 0.75 
0.720038 -2.59898 0.75 
0.725012 -2.61015 0.75 
0.730134 -2.62158 0.75 
0.735407 -2.63327 0.75 
0.740898 -2.64535 0.75 
0.746423 -2.65742 0.75 
0.751924 -2.66934 0.75 
0.757338 -2.68097 0.75 
0.762793 -2.69257 0.75 
0.768163 -2.70389 0.75 
0.77345 -2.71491 0.75 
0.778652 -2.72564 0.75 
0.783703 -2.73594 0.75 
0.788668 -2.74596 0.75 
0.793545 -2.75568 0.75 
0.798334 -2.76511 0.75 
0.802963 -2.77411 0.75 
0.808999 -2.78568 0.75 
0.814832 -2.79668 0.75 
0.820457 -2.80711 0.75 
0.825873 -2.81697 0.75 
0.83108 -2.82626 0.75 
0.83607 -2.83498 0.75 
0.842015 -2.84515 0.75 
0.847532 -2.85434 0.75 
0.853669 -2.86431 0.75 
0.85921 -2.87305 0.75 
0.864911 -2.88177 0.75 
0.870837 -2.89053 0.75 
0.876898 -2.89911 0.75 
0.883096 -2.90711 0.75 
0.889765 -2.91532 0.75 
0.896463 -2.92341 0.75 
0.903651 -2.93196 0.75 
0.910744 -2.9403 0.75 
0.917339 -2.94799 0.75 
0.925029 -2.9568 0.75 
0.932102 -2.96477 0.75 
0.939949 -2.97344 0.75 
0.947203 -2.98135 0.75 
0.955224 -2.98997 0.75 
0.962114 -2.99728 0.75 
0.969454 -3.005 0.75 
0.97725 -3.01311 0.75 
0.985505 -3.02161 0.75 
0.994222 -3.0305 0.75 
1.0034 -3.03977 0.75 
1.01056 -3.04694 0.75 
1.01806 -3.05439 0.75 
1.02581 -3.06202 0.75 
1.03379 -3.06984 0.75 
1.04202 -3.07784 0.75 
1.05029 -3.0858 0.75 
1.05857 -3.09374 0.75 
1.06696 -3.10179 0.75 
1.07556 -3.11004 0.75 
1.08449 -3.11861 0.75 
1.09364 -3.12738 0.75 
1.103 -3.13637 0.75 
1.11258 -3.14556 0.75 
1.12216 -3.15475 0.75 
1.13152 -3.16374 0.75 
1.14066 -3.17251 0.75 
1.14959 -3.18108 0.75 
1.15852 -3.18966 0.75 
1.16723 -3.19802 0.75 
1.17572 -3.20617 0.75 
1.184 -3.21412 0.75 
1.19227 -3.22207 0.75 
1.20033 -3.22981 0.75 
1.20817 -3.23734 0.75 
1.2158 -3.24467 0.75 
1.22343 -3.252 0.75 
1.23084 -3.25912 0.75 
1.24035 -3.26826 0.75 
1.24966 -3.2772 0.75 
1.25896 -3.28614 0.75 
1.26848 -3.29529 0.75 
1.27588 -3.30241 0.75 
1.28351 -3.30973 0.75 
1.29146 -3.31737 0.75 
1.29962 -3.32522 0.75 
1.308 -3.33327 0.75 
1.3166 -3.34154 0.75 
1.32553 -3.35011 0.75 
1.33466 -3.35889 0.75 
1.3438 -3.36768 0.75 
1.35273 -3.37625 0.75 
1.36165 -3.38482 0.75 
1.37036 -3.39319 0.75 
1.37885 -3.40135 0.75 
1.38712 -3.4093 0.75 
1.39539 -3.41725 0.75 
1.40345 -3.42499 0.75 
1.41129 -3.43253 0.75 
1.41892 -3.43986 0.75 
1.42654 -3.44718 0.75 
1.43395 -3.4543 0.75 
1.44347 -3.46345 0.75 
1.45277 -3.47239 0.75 
1.46184 -3.48114 0.75 
1.47037 -3.48958 0.75 
1.47836 -3.4977 0.75 
1.48584 -3.5055 0.75 
1.49281 -3.51294 0.75 
1.50084 -3.52176 0.75 
1.50814 -3.53002 0.75 
1.51585 -3.53902 0.75 
1.52264 -3.54723 0.75 
1.52924 -3.55549 0.75 
1.53595 -3.56424 0.75 
1.54209 -3.57266 0.75 
1.54811 -3.58144 0.75 
1.55432 -3.59083 0.75 
1.55982 -3.59932 0.75 
1.56523 -3.6078 0.75 
1.57138 -3.61758 0.75 
1.57695 -3.62656 0.75 
1.58296 -3.63634 0.75 
1.58946 -3.64704 0.75 
1.59487 -3.65604 0.75 
1.60015 -3.66494 0.75 
1.60624 -3.67537 0.75 
1.61202 -3.68546 0.75 
1.61802 -3.69611 0.75 
1.62312 -3.70529 0.75 
1.62846 -3.71502 0.75 
1.63402 -3.72531 0.75 
1.63981 -3.73616 0.75 
1.64582 -3.74758 0.75 
1.6505 -3.75656 0.75 
1.65528 -3.76583 0.75 
1.66015 -3.77538 0.75 
1.66512 -3.78522 0.75 
1.67026 -3.79548 0.75 
1.67535 -3.80576 0.75 
1.6804 -3.81607 0.75 
1.68541 -3.82639 0.75 
1.69018 -3.83633 0.75 
1.69478 -3.84602 0.75 
1.69927 -3.85559 0.75 
1.70373 -3.86518 0.75 
1.70796 -3.87438 0.75 
1.71335 -3.88627 0.75 
1.71842 -3.89764 0.75 
1.72318 -3.90849 0.75 
1.72763 -3.91882 0.75 
1.73179 -3.92863 0.75 
1.73583 -3.93832 0.75 
1.73998 -3.94845 0.75 
1.7443 -3.95916 0.75 
1.74878 -3.97046 0.75 
1.75341 -3.98234 0.75 
1.75819 -3.9948 0.75 
1.76188 -4.00455 0.75 
1.76563 -4.0146 0.75 
1.76944 -4.02494 0.75 
1.77336 -4.03573 0.75 
1.77724 -4.04653 0.75 
1.78102 -4.05721 0.75 
1.78465 -4.06761 0.75 
1.7881 -4.07761 0.75 
1.79162 -4.0879 0.75 
1.79523 -4.09848 0.75 
1.79894 -4.10933 0.75 
1.8028 -4.12062 0.75 
1.80676 -4.13218 0.75 
1.81082 -4.14403 0.75 
1.81498 -4.15616 0.75 
1.81928 -4.16872 0.75 
1.8235 -4.18099 0.75 
1.82761 -4.19298 0.75 
1.83163 -4.20469 0.75 
1.83565 -4.21639 0.75 
1.83958 -4.22781 0.75 
1.84341 -4.23894 0.75 
1.84714 -4.24979 0.75 
1.85073 -4.26022 0.75 
1.85432 -4.27064 0.75 
1.85786 -4.28092 0.75 
1.86131 -4.29092 0.75 
1.86461 -4.30049 0.75 
1.86791 -4.31006 0.75 
1.87222 -4.32254 0.75 
1.87631 -4.33446 0.75 
1.88015 -4.34583 0.75 
1.88382 -4.35694 0.75 
1.88743 -4.36807 0.75 
1.89097 -4.37922 0.75 
1.89436 -4.3901 0.75 
1.89761 -4.40071 0.75 
1.90072 -4.41106 0.75 
1.90369 -4.42113 0.75 
1.90661 -4.43121 0.75 
1.9094 -4.44102 0.75 
1.91273 -4.45294 0.75 
1.91584 -4.4643 0.75 
1.91881 -4.47539 0.75 
1.92157 -4.4859 0.75 
1.92429 -4.49643 0.75 
1.92695 -4.50698 0.75 
1.92939 -4.5168 0.75 
1.93214 -4.52817 0.75 
1.93473 -4.53912 0.75 
1.93717 -4.54964 0.75 
1.93945 -4.55974 0.75 
1.94169 -4.56985 0.75 
1.94405 -4.58077 0.75 
1.9463 -4.59141 0.75 
1.94861 -4.60257 0.75 
1.95081 -4.61376 0.75 
1.95287 -4.62481 0.75 
1.95464 -4.63486 0.75 
1.95631 -4.64492 0.75 
1.95795 -4.65537 0.75 
1.95943 -4.66539 0.75 
1.96092 -4.67616 0.75 
1.96228 -4.6868 0.75 
1.96354 -4.69745 0.75 
1.96467 -4.70789 0.75 
1.96572 -4.71856 0.75 
1.96662 -4.72864 0.75 
1.96743 -4.73866 0.75 
1.96831 -4.74958 0.75 
1.96922 -4.76064 0.75 
1.97038 -4.77077 0.75 
1.97201 -4.78076 0.75 
1.97998 -4.78742 0.75 
1.9901 -4.78775 0.75 
2.0003 -4.78797 0.75 
2.01117 -4.78813 0.75 
2.02197 -4.78823 0.75 
2.03412 -4.78827 0.75 
2.0453 -4.78826 0.75 
2.05737 -4.78819 0.75 
2.06757 -4.7881 0.75 
2.07852 -4.78796 0.75 
2.08962 -4.78777 0.75 
2.10027 -4.78751 0.75 
2.11031 -4.78722 0.75 
2.12208 -4.78679 0.75 
2.13459 -4.78623 0.75 
2.14523 -4.7857 0.75 
2.15646 -4.78506 0.75 
2.16829 -4.78433 0.75 
2.18071 -4.78349 0.75 
2.19372 -4.78255 0.75 
2.20382 -4.78176 0.75 
2.21436 -4.7809 0.75 
2.22519 -4.77997 0.75 
2.23632 -4.77896 0.75 
2.24775 -4.77789 0.75 
2.25917 -4.77676 0.75 
2.27058 -4.77559 0.75 
2.28184 -4.77439 0.75 
2.2928 -4.77317 0.75 
2.30331 -4.77196 0.75 
2.31381 -4.7707 0.75 
2.32415 -4.76941 0.75 
2.33419 -4.76812 0.75 
2.34698 -4.76639 0.75 
2.35915 -4.76467 0.75 
2.37073 -4.76296 0.75 
2.3817 -4.76127 0.75 
2.39266 -4.75951 0.75 
2.4042 -4.7576 0.75 
2.41632 -4.75551 0.75 
2.42902 -4.75325 0.75 
2.43898 -4.75142 0.75 
2.44923 -4.7495 0.75 
2.45976 -4.74748 0.75 
2.47058 -4.74535 0.75 
2.48183 -4.74309 0.75 
2.49307 -4.74078 0.75 
2.50415 -4.73845 0.75 
2.51493 -4.73614 0.75 
2.52571 -4.7338 0.75 
2.53677 -4.73138 0.75 
2.54812 -4.72887 0.75 
2.55976 -4.72627 0.75 
2.57183 -4.72355 0.75 
2.58419 -4.72072 0.75 
2.59683 -4.7178 0.75 
2.60975 -4.71477 0.75 
2.62223 -4.7118 0.75 
2.6347 -4.7088 0.75 
2.64701 -4.70578 0.75 
2.65901 -4.70279 0.75 
2.67057 -4.69986 0.75 
2.68183 -4.69696 0.75 
2.69293 -4.69405 0.75 
2.70402 -4.69108 0.75 
2.71466 -4.68819 0.75 
2.72499 -4.68533 0.75 
2.73502 -4.68249 0.75 
2.74476 -4.67969 0.75 
2.75713 -4.67605 0.75 
2.7689 -4.67249 0.75 
2.78008 -4.66903 0.75 
2.79069 -4.66577 0.75 
2.80075 -4.66275 0.75 
2.81248 -4.65932 0.75 
2.82338 -4.65623 0.75 
2.83343 -4.65347 0.75 
2.84321 -4.65086 0.75 
2.85388 -4.6481 0.75 
2.86545 -4.64519 0.75 
2.87536 -4.64277 0.75 
2.88586 -4.64026 0.75 
2.89696 -4.63767 0.75 
2.90866 -4.635 0.75 
2.92096 -4.63227 0.75 
2.93387 -4.62947 0.75 
2.94392 -4.62734 0.75 
2.95427 -4.62519 0.75 
2.96507 -4.62298 0.75 
2.97618 -4.62075 0.75 
2.98757 -4.61845 0.75 
2.99926 -4.6161 0.75 
3.01139 -4.61365 0.75 
3.02382 -4.61115 0.75 
3.03654 -4.60858 0.75 
3.04955 -4.60596 0.75 
3.06256 -4.60334 0.75 
3.07528 -4.60077 0.75 
3.0877 -4.59826 0.75 
3.09983 -4.59581 0.75 
3.11196 -4.59337 0.75 
3.1238 -4.59097 0.75 
3.13534 -4.58864 0.75 
3.14659 -4.58637 0.75 
3.15784 -4.5841 0.75 
3.16879 -4.58188 0.75 
3.17945 -4.57973 0.75 
3.18982 -4.57763 0.75 
3.20018 -4.57554 0.75 
3.2101 -4.57353 0.75 
3.22304 -4.57091 0.75 
3.23539 -4.5684 0.75 
3.24713 -4.56593 0.75 
3.25828 -4.56352 0.75 
3.26882 -4.56116 0.75 
3.27876 -4.55888 0.75 
3.29036 -4.55612 0.75 
3.30223 -4.55321 0.75 
3.31241 -4.55064 0.75 
3.32316 -4.54787 0.75 
3.33447 -4.54488 0.75 
3.34634 -4.54167 0.75 
3.35878 -4.53823 0.75 
3.36853 -4.53549 0.75 
3.37855 -4.53262 0.75 
3.38885 -4.52963 0.75 
3.39942 -4.52651 0.75 
3.41042 -4.52322 0.75 
3.42111 -4.51997 0.75 
3.4315 -4.51677 0.75 
3.44159 -4.51361 0.75 
3.45167 -4.51041 0.75 
3.46145 -4.50725 0.75 
3.47398 -4.50312 0.75 
3.48593 -4.4991 0.75 
3.49728 -4.4952 0.75 
3.50804 -4.49144 0.75 
3.51849 -4.48771 0.75 
3.52921 -4.48381 0.75 
3.54046 -4.47964 0.75 
3.55225 -4.4752 0.75 
3.56457 -4.47047 0.75 
3.57415 -4.46674 0.75 
3.58399 -4.46287 0.75 
3.59423 -4.45878 0.75 
3.60473 -4.45454 0.75 
3.61535 -4.45019 0.75 
3.62595 -4.4458 0.75 
3.63612 -4.44154 0.75 
3.64599 -4.43735 0.75 
3.65557 -4.43323 0.75 
3.66483 -4.42915 0.75 
3.67657 -4.42381 0.75 
3.68771 -4.41858 0.75 
3.69823 -4.41347 0.75 
3.70816 -4.4085 0.75 
3.71749 -4.40368 0.75 
3.72827 -4.39793 0.75 
3.73819 -4.39245 0.75 
3.74724 -4.38728 0.75 
3.75692 -4.38156 0.75 
3.7667 -4.37555 0.75 
3.77579 -4.36972 0.75 
3.78465 -4.3638 0.75 
3.79305 -4.35802 0.75 
3.80194 -4.35177 0.75 
3.81073 -4.34549 0.75 
3.82056 -4.33835 0.75 
3.82957 -4.33173 0.75 
3.83925 -4.32452 0.75 
3.84753 -4.3183 0.75 
3.85625 -4.31168 0.75 
3.86542 -4.30466 0.75 
3.87504 -4.29724 0.75 
3.88509 -4.2894 0.75 
3.89559 -4.28115 0.75 
3.90376 -4.27468 0.75 
3.91203 -4.26808 0.75 
3.92026 -4.26145 0.75 
3.92812 -4.25506 0.75 
3.9382 -4.24677 0.75 
3.94777 -4.2388 0.75 
3.95683 -4.23116 0.75 
3.96538 -4.22386 0.75 
3.97412 -4.21631 0.75 
3.98326 -4.20831 0.75 
3.99281 -4.19986 0.75 
4.00276 -4.19095 0.75 
4.01049 -4.18396 0.75 
4.01841 -4.17673 0.75 
4.02652 -4.16926 0.75 
4.03493 -4.16145 0.75 
4.0433 -4.1536 0.75 
4.05164 -4.14572 0.75 
4.05995 -4.13781 0.75 
4.06789 -4.13016 0.75 
4.07559 -4.1227 0.75 
4.08315 -4.1153 0.75 
4.09067 -4.10787 0.75 
4.09785 -4.10072 0.75 
4.10704 -4.09146 0.75 
4.11575 -4.08257 0.75 
4.12399 -4.07406 0.75 
4.13177 -4.06593 0.75 
4.13908 -4.05818 0.75 
4.14655 -4.05018 0.75 
4.15439 -4.04169 0.75 
4.16257 -4.03271 0.75 
4.17111 -4.02324 0.75 
4.17999 -4.01328 0.75 
4.18689 -4.00546 0.75 
4.19395 -3.99739 0.75 
4.20118 -3.98906 0.75 
4.20866 -3.98037 0.75 
4.21611 -3.97163 0.75 
4.22342 -3.96299 0.75 
4.23051 -3.95454 0.75 
4.23732 -3.94645 0.75 
4.24397 -3.93862 0.75 
4.25258 -3.92861 0.75 
4.26085 -3.91911 0.75 
4.26879 -3.91011 0.75 
4.27639 -3.90161 0.75 
4.28363 -3.8936 0.75 
4.29072 -3.88586 0.75 
4.29807 -3.87794 0.75 
4.30586 -3.86962 0.75 
4.31412 -3.86092 0.75 
4.32285 -3.85183 0.75 
4.33204 -3.84235 0.75 
4.33923 -3.83502 0.75 
4.34667 -3.8275 0.75 
4.35445 -3.81969 0.75 
4.36227 -3.81191 0.75 
4.37012 -3.80417 0.75 
4.378 -3.79646 0.75 
4.38559 -3.7891 0.75 
4.39321 -3.78177 0.75 
4.40097 -3.77436 0.75 
4.40895 -3.76675 0.75 
4.41725 -3.75883 0.75 
4.42577 -3.7507 0.75 
4.4345 -3.74236 0.75 
4.44345 -3.73381 0.75 
4.45272 -3.72495 0.75 
4.46221 -3.71588 0.75 
4.47169 -3.70681 0.75 
4.48096 -3.69795 0.75 
4.4899 -3.68939 0.75 
4.49884 -3.68083 0.75 
4.50767 -3.67238 0.75 
4.51628 -3.66413 0.75 
4.52457 -3.65619 0.75 
4.53264 -3.64846 0.75 
4.5406 -3.64083 0.75 
4.54855 -3.6332 0.75 
4.55629 -3.62578 0.75 
4.56371 -3.61866 0.75 
4.57101 -3.61165 0.75 
4.57828 -3.6046 0.75 
4.5875 -3.59558 0.75 
4.59623 -3.58692 0.75 
4.60448 -3.57862 0.75 
4.61227 -3.57071 0.75 
4.61958 -3.56317 0.75 
4.62727 -3.55517 0.75 
4.63532 -3.54668 0.75 
4.64373 -3.5377 0.75 
4.6525 -3.52824 0.75 
4.65935 -3.52078 0.75 
4.66636 -3.51307 0.75 
4.67354 -3.50511 0.75 
4.68089 -3.49689 0.75 
4.68851 -3.4883 0.75 
4.69608 -3.47968 0.75 
4.70352 -3.47114 0.75 
4.71073 -3.4628 0.75 
4.71761 -3.45477 0.75 
4.72425 -3.44693 0.75 
4.73273 -3.43682 0.75 
4.74077 -3.42711 0.75 
4.74836 -3.41782 0.75 
4.75552 -3.40895 0.75 
4.76225 -3.4005 0.75 
4.76893 -3.39202 0.75 
4.77593 -3.38302 0.75 
4.78325 -3.37351 0.75 
4.79087 -3.36347 0.75 
4.79879 -3.35292 0.75 
4.80492 -3.34467 0.75 
4.81119 -3.33615 0.75 
4.81769 -3.32725 0.75 
4.82433 -3.31807 0.75 
4.83093 -3.30887 0.75 
4.83732 -3.29989 0.75 
4.84341 -3.29124 0.75 
4.84947 -3.28257 0.75 
4.8554 -3.274 0.75 
4.86112 -3.26565 0.75 
4.86837 -3.25497 0.75 
4.87521 -3.24475 0.75 
4.88166 -3.23499 0.75 
4.88772 -3.22569 0.75 
4.8934 -3.21686 0.75 
4.89903 -3.20799 0.75 
4.90492 -3.19859 0.75 
4.91108 -3.18864 0.75 
4.91749 -3.17814 0.75 
4.92415 -3.16709 0.75 
4.92933 -3.1584 0.75 
4.93463 -3.14942 0.75 
4.94005 -3.14016 0.75 
4.94557 -3.13062 0.75 
4.95128 -3.12067 0.75 
4.95695 -3.11069 0.75 
4.96257 -3.10068 0.75 
4.96815 -3.09066 0.75 
4.97372 -3.08063 0.75 
4.97944 -3.07033 0.75 
4.9853 -3.05977 0.75 
4.9913 -3.04895 0.75 
4.99753 -3.03774 0.75 
5.0039 -3.02627 0.75 
5.01035 -3.01466 0.75 
5.0168 -3.00306 0.75 
5.02302 -2.99185 0.75 
5.02911 -2.9809 0.75 
5.03512 -2.97008 0.75 
5.04113 -2.95926 0.75 
5.04692 -2.94884 0.75 
5.05257 -2.93868 0.75 
5.05815 -2.92865 0.75 
5.06372 -2.91862 0.75 
5.06908 -2.90899 0.75 
5.0743 -2.89962 0.75 
5.07943 -2.89037 0.75 
5.08458 -2.88113 0.75 
5.0895 -2.87228 0.75 
5.09584 -2.86088 0.75 
5.10211 -2.84961 0.75 
5.10839 -2.83833 0.75 
5.11488 -2.82667 0.75 
5.11995 -2.81756 0.75 
5.12516 -2.80819 0.75 
5.13052 -2.79855 0.75 
5.1361 -2.78853 0.75 
5.14182 -2.77824 0.75 
5.14769 -2.76768 0.75 
5.15371 -2.75687 0.75 
5.15995 -2.74566 0.75 
5.16604 -2.73472 0.75 
5.17198 -2.72404 0.75 
5.17778 -2.71362 0.75 
5.18358 -2.7032 0.75 
5.18923 -2.69304 0.75 
5.19473 -2.68314 0.75 
5.20009 -2.67351 0.75 
5.20545 -2.66387 0.75 
5.21067 -2.6545 0.75 
5.21574 -2.64539 0.75 
5.22066 -2.63654 0.75 
5.22558 -2.6277 0.75 
5.23193 -2.61629 0.75 
5.23798 -2.60541 0.75 
5.24396 -2.59467 0.75 
5.24994 -2.58392 0.75 
5.25571 -2.57356 0.75 
5.26118 -2.56373 0.75 
5.26657 -2.55403 0.75 
5.27175 -2.54473 0.75 
5.27686 -2.53555 0.75 
5.28197 -2.52638 0.75 
5.28685 -2.51759 0.75 
5.29287 -2.50678 0.75 
5.29852 -2.49662 0.75 
5.30403 -2.48673 0.75 
5.30932 -2.47722 0.75 
5.31461 -2.46772 0.75 
5.3195 -2.45886 0.75 
5.32436 -2.44997 0.75 
5.32984 -2.43981 0.75 
5.33513 -2.42988 0.75 
5.3401 -2.42046 0.75 
5.34487 -2.41127 0.75 
5.35005 -2.4012 0.75 
5.35505 -2.39137 0.75 
5.35979 -2.38192 0.75 
5.36486 -2.37171 0.75 
5.36968 -2.36188 0.75 
5.37411 -2.35269 0.75 
5.37844 -2.34346 0.75 
5.38297 -2.33357 0.75 
5.3871 -2.32433 0.75 
5.39142 -2.31443 0.75 
5.39561 -2.30455 0.75 
5.39949 -2.2952 0.75 
5.40328 -2.28581 0.75 
5.40719 -2.27583 0.75 
5.41077 -2.26644 0.75 
